<svg width="350" height="429" viewBox="0 0 350 429" fill="none" xmlns="http://www.w3.org/2000/svg">
<g clip-path="url(#clip0_71_166)">
<path d="M216.52 52.1995L216.572 50.0425C205.684 49.7806 197.563 43.6212 192.436 31.7362C190.435 26.9327 188.991 21.9158 188.132 16.7835L186.008 17.162C186.895 22.458 188.387 27.6348 190.454 32.591C195.946 45.3185 204.716 51.9156 216.52 52.1995Z" fill="#3F3D56"/>
<path d="M245.354 356.932L255.774 350.579L236.23 307.364L220.851 316.74L245.354 356.932Z" fill="#FFB6B6"/>
<path d="M251.614 368.026L283.657 348.492L283.41 348.086C281.393 344.779 278.145 342.408 274.38 341.495C270.616 340.581 266.642 341.201 263.335 343.217L263.334 343.218L254.774 342.345L246.56 353.443L243.763 355.149L251.614 368.026Z" fill="#2F2E41"/>
<path d="M110.251 397.311L122.223 399.679L137.055 354.629L119.385 351.134L110.251 397.311Z" fill="#FFB6B6"/>
<path d="M107.359 409.717L144.173 416.999L144.265 416.534C145.017 412.734 144.228 408.79 142.073 405.571C139.917 402.353 136.572 400.122 132.772 399.37L132.771 399.369L127.055 392.937L113.499 395.557L110.286 394.921L107.359 409.717Z" fill="#2F2E41"/>
<path d="M88.7025 411.551C88.3722 411.605 88.0333 411.556 87.7318 411.411C87.4303 411.266 87.1807 411.031 87.0169 410.739C86.8531 410.448 86.7829 410.112 86.816 409.779C86.849 409.446 86.9836 409.131 87.2016 408.877L87.2614 408.423C87.2427 408.389 87.2239 408.356 87.205 408.322C86.7788 407.57 86.1401 406.962 85.369 406.572C84.5979 406.183 83.7289 406.029 82.8712 406.132C82.0134 406.235 81.2051 406.589 80.5478 407.149C79.8904 407.71 79.4134 408.452 79.1767 409.283C78.2298 412.599 76.9248 415.962 76.9008 419.355C76.8909 420.855 77.1412 422.345 77.6406 423.759C73.7749 417.387 71.3246 410.257 70.4559 402.855C70.2398 400.997 70.1278 399.128 70.1203 397.258C70.1156 395.724 70.1783 394.194 70.3083 392.667C71.0234 384.379 73.6941 376.379 78.1013 369.324C80.4389 367.673 82.2142 365.345 83.188 362.654C83.5417 361.687 83.7534 360.673 83.8165 359.645C83.5393 359.714 82.2624 355.517 82.4442 355.23C81.9829 354.68 81.2464 354.465 80.7506 353.934C78.2848 351.292 75.4076 352.137 74.3302 356.241C71.2478 358.273 71.5338 361.017 73.8482 363.419C75.3207 364.948 75.7594 367.196 77.0889 368.861C76.9906 369.023 76.8872 369.18 76.789 369.341C74.9945 372.297 73.494 375.422 72.3091 378.671C72.285 375.188 71.4343 371.76 69.827 368.67C68.2286 365.801 65.5932 363.535 63.2295 361.169C62.6031 360.533 61.802 360.096 60.9275 359.915C60.0531 359.734 59.1445 359.816 58.3166 360.15C57.4887 360.485 56.7787 361.058 56.2763 361.797C55.7739 362.535 55.5017 363.406 55.4941 364.299C55.4943 364.338 55.4947 364.377 55.4951 364.415C55.8214 364.553 56.1424 364.701 56.4582 364.861C56.8552 365.065 57.1814 365.383 57.3942 365.775C57.607 366.167 57.6965 366.615 57.6508 367.058C57.6051 367.502 57.4264 367.922 57.1382 368.262C56.85 368.603 56.4656 368.848 56.0355 368.966L55.9914 368.978C56.2285 370.07 56.5481 371.141 56.9476 372.184C55.4886 382.719 61.6307 385.782 69.8033 385.004C69.994 385.075 70.1801 385.147 70.3702 385.214C69.3308 389.781 68.8895 394.464 69.0576 399.144C69.1656 401.905 69.4966 404.652 70.0475 407.359L70.0224 407.264C69.0791 404.292 67.1392 401.737 64.5302 400.029C60.6601 397.536 55.5439 397.046 51.4613 395.155C51.026 394.942 50.5388 394.858 50.0572 394.912C49.5756 394.967 49.1197 395.158 48.7432 395.463C48.3668 395.769 48.0854 396.175 47.9324 396.635C47.7795 397.095 47.7612 397.589 47.8797 398.059L47.9071 398.159C48.5023 398.325 49.0865 398.527 49.6564 398.765C49.9827 398.903 50.3037 399.051 50.6195 399.211C51.0165 399.415 51.3427 399.733 51.5555 400.125C51.7684 400.517 51.8578 400.965 51.8121 401.408C51.7664 401.852 51.5877 402.272 51.2995 402.612C51.0112 402.953 50.6269 403.198 50.1968 403.316L50.1527 403.328C50.1209 403.337 50.0937 403.345 50.062 403.353C51.3018 405.559 52.912 407.535 54.8221 409.194C57.5111 417.932 64.7123 417.955 72.0088 414.474L72.0135 414.474C73.2671 417.999 74.8838 421.386 76.8375 424.577L89.7127 423.085C89.7423 422.936 89.7667 422.784 89.7916 422.636C88.6086 422.849 87.4039 422.916 86.2044 422.837C87.0238 421.554 87.842 420.262 88.6614 418.979C88.6802 418.954 88.6976 418.929 88.7134 418.902C89.1284 418.246 89.5485 417.594 89.9635 416.938L89.9637 416.938C89.7763 415.096 89.3526 413.285 88.703 411.552L88.7025 411.551Z" fill="#F2F2F2"/>
<path d="M299.13 136.849L299.948 134.853C245.264 112.474 219.661 96.0861 219.373 83.2807C219.139 72.8704 236.327 64.9163 254.524 56.4947C276.431 46.3561 301.262 34.8648 304.48 15.6077C306.627 2.76036 299.041 -11.7639 281.287 -28.7957L279.793 -27.2386C296.994 -10.7378 304.373 3.16105 302.352 15.252C299.321 33.3853 275.04 44.6223 253.618 54.5364C233.942 63.642 216.95 71.506 217.216 83.3293C217.53 97.2875 242.793 113.794 299.13 136.849Z" fill="#3F3D56"/>
<path d="M229.932 334.89L246.417 327.186L217.951 246.404L159.13 199.697L128.179 188.76L81.5657 194.165C81.5657 194.165 67.7157 212.795 72.6228 222.029C74.1138 224.834 78.1884 243.634 82.6791 245.041C87.1698 246.449 82.155 250.823 85.351 251.452C88.547 252.082 87.3247 256.214 88.329 258.647C97.9883 282.053 116.06 308.267 116.06 308.267L116.474 361.802L138.685 372.26L144.378 303.579L128.752 236.748C128.752 236.748 169.168 250.983 168.749 255.234C168.331 259.485 175.905 255.523 175.856 258.519C175.807 261.515 182.717 261.69 182.717 261.69L189.283 264.725L229.932 334.89Z" fill="#2F2E41"/>
<path d="M190.723 21.3437C190.684 22.416 190.413 23.467 189.928 24.4241C189.443 25.3812 188.756 26.2216 187.914 26.887C187.073 27.5525 186.096 28.0271 185.053 28.2782C184.01 28.5293 182.925 28.5507 181.872 28.3411L161.029 58.8213L151.181 55.1289L176.201 19.1081C176.686 17.363 177.794 15.8563 179.315 14.8736C180.836 13.8908 182.665 13.5002 184.455 13.7757C186.245 14.0513 187.872 14.9739 189.027 16.3687C190.183 17.7635 190.786 19.5337 190.723 21.3437L190.723 21.3437Z" fill="#FFB6B6"/>
<path d="M72.2925 104.584L79.2839 122.476C79.6101 123.311 80.1072 124.068 80.7434 124.699C81.3795 125.33 82.1406 125.822 82.9778 126.141C83.815 126.461 84.7098 126.602 85.6047 126.556C86.4997 126.509 87.375 126.276 88.1745 125.871L138.937 100.168L177.361 37.5909L165.686 31.2265L125.792 76.9942C112.954 75.6733 91.7805 91.9035 72.2925 104.584Z" fill="#E6E6E6"/>
<path d="M81.424 73.1679L95.7022 70.2294L119.622 89.1788L124.106 96.6239C132.071 99.7498 124.737 97.3671 125.183 105.912L130.132 161.093C130.132 161.093 148.938 176.92 143.604 182.405C138.27 187.89 150.094 198.571 136.814 194.045C123.534 189.519 67.2055 224.144 67.2055 224.144C67.2055 224.144 63.1903 208.611 68.848 207.265C74.5058 205.92 76.7395 206.45 69.5184 200.376C62.2973 194.301 70.8401 186.794 70.8401 186.794L65.3307 136.891L61.2226 109.796C60.455 104.733 61.3839 99.5583 63.8647 95.0783C66.3455 90.5983 70.2387 87.0649 74.9375 85.0288L76.1069 84.5221L81.424 73.1679Z" fill="#E6E6E6"/>
<path d="M88.726 67.0549C100.606 65.6774 109.121 54.93 107.743 43.0497C106.366 31.1694 95.6182 22.6552 83.738 24.0326C71.8577 25.41 63.3434 36.1575 64.7208 48.0377C66.0982 59.918 76.8457 68.4323 88.726 67.0549Z" fill="#FFB6B6"/>
<path d="M60.3291 46.1575C60.9708 52.7254 68.6539 70.0267 83.9959 67.4784C87.5532 66.8767 75.7222 55.0396 82.8382 52.3789C82.9894 52.3235 83.1539 52.2729 83.3315 52.2271C83.5216 52.1789 83.7061 52.111 83.882 52.0245C87.0438 50.4594 81.6108 44.2956 84.0441 42.0517C88.2714 40.2869 92.6377 38.8755 97.0981 37.8321C97.0734 36.7034 97.2597 35.58 97.6476 34.5198C97.7635 35.6165 98.186 36.6584 98.8667 37.5261C100.934 37.2422 102.698 37.2712 103.745 37.8751C108.557 40.6415 105.558 32.24 108.887 27.817C108.213 27.3905 104.684 28.8342 103.611 29.4822C103.909 28.842 104.092 28.1547 104.152 27.4514C104.242 26.6779 104.093 25.8952 103.726 25.2084C103.359 24.5215 102.791 23.9633 102.098 23.6083C100.614 22.9982 98.8948 23.6769 97.3422 23.2892C97.1461 23.2219 96.9698 23.1071 96.8288 22.955C96.6879 22.8029 96.5868 22.6183 96.5347 22.4177C96.3673 21.9504 96.0989 21.5257 95.7487 21.174C95.3985 20.8222 94.975 20.5521 94.5084 20.3827C94.0418 20.2133 93.5436 20.1489 93.0493 20.1941C92.555 20.2392 92.0767 20.3928 91.6485 20.6439C91.4865 20.7614 91.2983 20.8373 91.1001 20.8652C90.0568 20.9209 89.0106 20.8494 87.9846 20.6524C89.0387 20.0063 90.0405 19.2785 90.9808 18.4757C91.1696 18.3087 91.3647 18.1411 91.5527 17.9679C89.6259 16.5827 86.9832 16.4223 84.6749 17.0243C82.2443 17.6593 80.0814 19.0266 77.9538 20.3709C76.7265 21.1566 75.5011 21.9399 74.2775 22.721C71.6801 24.3658 69.7412 29.2963 66.8746 28.1841C62.0336 26.3106 59.6882 39.5958 60.3291 46.1575Z" fill="#2F2E41"/>
<path d="M189.807 32.5274C194.148 32.0241 197.259 28.0974 196.755 23.7568C196.252 19.4162 192.325 16.3054 187.985 16.8087C183.644 17.3119 180.533 21.2386 181.037 25.5792C181.54 29.9198 185.467 33.0306 189.807 32.5274Z" fill="#DF4C73"/>
<path d="M224.777 89.9348C224.281 90.8864 223.585 91.719 222.736 92.3749C221.887 93.0309 220.905 93.4945 219.859 93.7338C218.813 93.9731 217.728 93.9824 216.678 93.7609C215.628 93.5395 214.639 93.0926 213.779 92.4512L181.862 111.021L174.555 103.456L212.624 81.6773C213.811 80.3097 215.459 79.4252 217.255 79.1912C219.051 78.9573 220.87 79.3903 222.368 80.4081C223.866 81.426 224.939 82.9579 225.383 84.7138C225.827 86.4696 225.611 88.3273 224.777 89.9348L224.777 89.9348Z" fill="#FFB6B6"/>
<path d="M82.0716 114.224L80.6986 133.384C80.6345 134.277 80.7581 135.175 81.0613 136.018C81.3646 136.861 81.8408 137.632 82.4595 138.28C83.0782 138.929 83.8255 139.441 84.6537 139.783C85.4819 140.125 86.3725 140.291 87.2684 140.269L144.15 138.866L204.822 99.5751L197.922 88.103L142.236 112.293C131.767 105.379 105.257 111.112 82.0716 114.224Z" fill="#E6E6E6"/>
<path d="M223.903 52.6362L225.244 64.3676C225.261 64.5721 225.197 64.775 225.067 64.9336C224.937 65.0922 224.75 65.1941 224.547 65.2177C224.343 65.2413 224.138 65.1849 223.975 65.0603C223.812 64.9357 223.704 64.7526 223.673 64.5498L222.332 52.8183C222.315 52.6139 222.378 52.4109 222.509 52.2523C222.639 52.0937 222.825 51.9919 223.029 51.9682C223.233 51.9446 223.438 52.0011 223.601 52.1257C223.764 52.2503 223.872 52.4333 223.903 52.6362V52.6362Z" fill="#DF4C73"/>
<path d="M230.114 58.3102L218.685 59.6637C218.481 59.6803 218.278 59.6168 218.119 59.4866C217.961 59.3565 217.859 59.1698 217.835 58.966C217.811 58.7622 217.868 58.5572 217.992 58.3942C218.117 58.2312 218.3 58.123 218.503 58.0923L229.932 56.7389C230.137 56.7223 230.339 56.7858 230.498 56.9159C230.657 57.0461 230.758 57.2328 230.782 57.4366C230.806 57.6404 230.749 57.8454 230.625 58.0084C230.5 58.1714 230.317 58.2796 230.114 58.3102V58.3102Z" fill="#DF4C73"/>
<path d="M213.209 59.5018C212.964 57.3821 213.352 55.2372 214.325 53.3382C215.299 51.4392 216.813 49.8715 218.677 48.8333C220.542 47.795 222.672 47.333 224.799 47.5055C226.926 47.678 228.954 48.4773 230.626 49.8023C232.299 51.1274 233.541 52.9187 234.196 54.9497C234.85 56.9807 234.888 59.1602 234.304 61.2126C233.72 63.265 232.54 65.098 230.914 66.48C229.288 67.862 227.289 68.7308 225.169 68.9765C222.327 69.3028 219.472 68.4885 217.23 66.7122C214.988 64.936 213.542 62.3429 213.209 59.5018ZM214.74 59.3243C214.951 61.1412 215.696 62.8548 216.88 64.2484C218.065 65.6421 219.636 66.6531 221.395 67.1538C223.154 67.6545 225.022 67.6223 226.763 67.0612C228.504 66.5001 230.04 65.4355 231.175 64.0018C232.311 62.5681 232.996 60.8299 233.144 59.0068C233.292 57.1837 232.896 55.3578 232.006 53.7598C231.116 52.1619 229.772 50.8637 228.145 50.0294C226.517 49.1952 224.678 48.8623 222.862 49.073C220.426 49.3581 218.204 50.5976 216.681 52.5194C215.159 54.4412 214.461 56.8885 214.74 59.3243V59.3243Z" fill="#DF4C73"/>
<path d="M301.888 149.869C306.229 149.366 309.34 145.439 308.836 141.098C308.333 136.758 304.406 133.647 300.066 134.15C295.725 134.653 292.615 138.58 293.118 142.921C293.621 147.261 297.548 150.372 301.888 149.869Z" fill="#3F3D56"/>
</g>
<defs>
<clipPath id="clip0_71_166">
<rect width="300" height="440.621" fill="white" transform="translate(0.625 -9.25856) rotate(-6.61341)"/>
</clipPath>
</defs>
</svg>
