<svg width="489" height="294" viewBox="0 0 489 294" fill="none" xmlns="http://www.w3.org/2000/svg">
<g clip-path="url(#clip0_72_229)">
<path d="M179.393 219.742C179.419 219.081 177.394 218.464 174.87 218.364C172.346 218.264 170.278 218.718 170.252 219.379C170.226 220.04 172.251 220.657 174.775 220.757C177.299 220.858 179.366 220.403 179.393 219.742Z" fill="#E6E6E6"/>
<path d="M208.508 218.2C208.534 217.539 206.509 216.922 203.985 216.822C201.461 216.722 199.394 217.176 199.368 217.837C199.341 218.498 201.366 219.115 203.89 219.215C206.415 219.316 208.482 218.861 208.508 218.2Z" fill="#3F3D56"/>
<path d="M168.206 210.758C168.232 210.097 166.207 209.48 163.683 209.38C161.159 209.28 159.091 209.735 159.065 210.395C159.039 211.056 161.064 211.673 163.588 211.773C166.112 211.874 168.18 211.419 168.206 210.758Z" fill="#FF6584"/>
<path d="M154.143 207.476C154.21 206.886 153.36 206.304 152.243 206.177C151.126 206.05 150.167 206.425 150.1 207.015C150.032 207.605 150.883 208.187 152 208.314C153.116 208.441 154.076 208.066 154.143 207.476Z" fill="#E6E6E6"/>
<path d="M147.424 200.594C147.491 200.004 146.64 199.423 145.524 199.295C144.407 199.168 143.448 199.543 143.38 200.133C143.313 200.724 144.164 201.305 145.28 201.432C146.397 201.56 147.356 201.184 147.424 200.594Z" fill="#3F3D56"/>
<path d="M185.397 212.312C185.464 211.722 184.613 211.14 183.497 211.013C182.38 210.886 181.42 211.261 181.353 211.851C181.286 212.441 182.137 213.023 183.253 213.15C184.37 213.277 185.329 212.902 185.397 212.312Z" fill="#E6E6E6"/>
<path d="M172.071 215.24C172.139 214.65 171.288 214.069 170.171 213.941C169.055 213.814 168.095 214.189 168.028 214.779C167.961 215.369 168.811 215.951 169.928 216.078C171.044 216.205 172.004 215.83 172.071 215.24Z" fill="#FF6584"/>
<path d="M193.625 219.957C193.692 219.367 192.841 218.785 191.725 218.658C190.608 218.531 189.648 218.906 189.581 219.496C189.514 220.086 190.365 220.668 191.481 220.795C192.598 220.922 193.557 220.547 193.625 219.957Z" fill="#3F3D56"/>
<path d="M396.842 10.6538C395.409 -0.330244 370.073 0.370439 367.681 10.7047C366.412 9.91097 363.184 10.4603 361.98 11.3726C360.776 12.2849 360.004 13.6261 359.249 14.928C358.218 16.7362 357.148 18.6092 356.92 20.6825C356.682 22.7519 357.495 25.0961 359.371 26.0175C360.86 26.7518 364.134 26.2559 365.771 25.9272C366.912 25.7002 367.87 25.5014 368.684 25.3065C368.957 24.0203 368.768 22.679 368.151 21.5179C368.809 21.6485 369.429 21.9228 369.968 22.3214C370.506 22.7199 370.95 23.2328 371.267 23.8231C371.396 24.0704 376.037 59.0113 376.037 59.0113C377.306 59.1642 378.587 59.1962 379.862 59.1067C380.653 54.8065 380.797 50.4122 380.289 46.0695C381.633 48.5517 382.696 51.1759 383.459 53.8937C383.896 55.4138 384.256 56.9552 384.535 58.5119C395.582 56.4462 410.515 49.3313 413.24 37.2501C413.225 37.2111 413.21 37.1721 413.195 37.1331C413.046 36.7639 413.03 36.3545 413.15 35.9748C413.269 35.5952 413.518 35.269 413.851 35.0521C414.185 34.8353 414.584 34.7412 414.98 34.7861C415.375 34.831 415.743 35.0121 416.02 35.2982C416.353 35.641 416.65 35.9339 416.9 36.1609C415.932 28.4457 410.08 21.503 396.842 10.6538Z" fill="#2F2E41"/>
<path d="M235.545 279.664L229.351 276.426L239.172 250.464L248.313 255.243L235.545 279.664Z" fill="#A0616A"/>
<path d="M210.554 279.352C210.171 280.086 210.095 280.943 210.342 281.733C210.59 282.524 211.141 283.184 211.875 283.569L224.189 290.006L228.602 286.727L227.138 291.545L231.783 293.977L238.662 277.641L237.094 276.702L230.706 272.854L228.642 271.616L226.325 276.048L212.939 277.699C212.438 277.761 211.959 277.943 211.543 278.231C211.128 278.519 210.788 278.904 210.554 279.352V279.352Z" fill="#2F2E41"/>
<path d="M229.2 184.087L224.695 178.744L243.621 158.438L250.269 166.325L229.2 184.087Z" fill="#A0616A"/>
<path d="M206.191 174.329C205.558 174.863 205.163 175.627 205.093 176.453C205.022 177.278 205.282 178.098 205.815 178.732L214.773 189.355L220.099 187.992L216.919 191.896L220.295 195.907L232.851 183.396L231.756 181.932L227.302 175.95L225.862 174.024L222.038 177.247L209.024 173.703C208.537 173.57 208.024 173.558 207.531 173.667C207.037 173.776 206.578 174.003 206.191 174.329Z" fill="#2F2E41"/>
<path d="M427.871 164.065C427.871 164.065 446.997 205.001 367.795 193.97C367.795 193.97 325.598 147.206 326.817 141.58C326.817 141.58 308.857 123.33 309.736 122.998C310.615 122.666 311.157 121.944 309.705 122.01C308.253 122.075 308.253 119.913 308.253 119.913C308.253 119.913 275.795 155.112 248.466 172.578L239.017 161.948C239.017 161.948 242.702 150.421 244.473 150.421C246.245 150.421 246.856 150.847 247.141 148.567C247.426 146.288 246.015 144.33 247.902 144.128C249.788 143.925 288.887 98.2289 288.887 98.2289C288.887 98.2289 293.106 83.1777 305.994 86.091C318.883 89.0043 385.854 143.453 385.854 143.453L427.871 164.065Z" fill="#2F2E41"/>
<path d="M395.619 195.297L290.985 194.429L245.513 266.476L232.662 259.673L235.511 258.471C235.511 258.471 234.649 248.457 235.705 245.922C236.762 243.387 239.904 244.15 239.904 244.15L266.416 183.011C268.244 177.584 271.836 172.925 276.619 169.776C281.403 166.627 287.102 165.17 292.81 165.635C314.746 162.436 350.356 164.992 387.352 168.132L395.619 195.297Z" fill="#2F2E41"/>
<path d="M335.039 72.6806C337.031 72.9859 338.825 74.0563 340.039 75.6641C341.254 77.2718 341.793 79.29 341.542 81.2893C341.485 81.6949 341.394 82.095 341.271 82.4856L362.771 98.7939L358.334 112.615L331.297 87.0904C329.717 86.4533 328.392 85.3111 327.53 83.842C326.667 82.373 326.315 80.6597 326.528 78.9695C326.659 78.009 326.978 77.0836 327.466 76.2461C327.955 75.4087 328.603 74.6757 329.375 74.089C330.147 73.5022 331.026 73.0731 331.964 72.8263C332.901 72.5795 333.878 72.5198 334.839 72.6505C334.906 72.6597 334.972 72.6697 335.039 72.6806Z" fill="#A0616A"/>
<path d="M429.889 73.6986L422.158 95.1001L391.928 137.82C391.928 137.82 391.68 137.714 391.231 137.525C388.633 136.403 379.196 132.281 370.32 127.598C361.987 123.198 354.139 118.303 352.923 114.937C352.793 114.582 352.675 114.24 352.568 113.909V113.903C352.002 112.189 351.647 110.412 351.511 108.612C351.411 107.224 351.499 106.48 351.31 106.391C351.163 106.326 350.856 106.645 350.176 107.366C350.129 107.413 350.088 107.46 350.041 107.502C347.584 109.964 344.566 109.645 345.304 108.476C346.06 107.277 345.665 107.301 344.554 106.049C343.728 105.116 341.041 101.466 339.718 99.6651C339.263 99.045 338.974 98.6434 338.974 98.6434L339.428 97.9289L340.686 95.9564L346.669 86.5785L346.999 86.0647C346.999 86.0647 359.295 88.9053 360.93 91.6041C362.572 94.3029 358.456 94.2143 362.572 94.3029C366.688 94.3915 370.887 88.7931 367.881 94.3619C364.875 99.9249 365.667 101.868 369.387 100.988C370.899 100.628 373.291 101.767 375.594 103.244V103.25C377.034 104.185 378.424 105.197 379.757 106.279C381.18 107.425 382.143 108.293 382.143 108.293L405.493 60.9191L408.08 55.6751C408.868 54.0794 409.967 52.6568 411.311 51.4907C412.656 50.3246 414.219 49.4384 415.91 48.8838L416.719 50.2952C421.757 57.7138 426.162 65.5425 429.889 73.6986V73.6986Z" fill="#DF4C73"/>
<path d="M431.182 141.624C438.339 143.289 430.725 195.39 422.194 195.552C360.186 196.734 379.066 161.944 375.741 158.614C372.416 155.277 369.416 157.669 372.416 152.478C374.602 148.698 377.844 149.259 377.891 147.139C377.915 146.348 377.495 145.19 376.409 143.289C372.416 136.297 372.416 134.212 372.416 134.212C371.421 132.113 370.716 129.888 370.32 127.598C369.672 124.194 369.593 120.706 370.084 117.275C370.834 112.243 372.718 107.447 375.594 103.25V103.244C375.895 102.795 376.208 102.34 376.539 101.891C377.289 100.87 381.446 101.065 381.446 101.065L390.304 63.8601L385.178 49.0255L409.456 37.6516L415.91 48.8838L416.719 50.2952C421.757 57.7139 426.162 65.5425 429.889 73.6987C433.473 81.677 436.42 90.5352 436.526 98.2419C436.81 118.338 433.343 124.315 433.343 124.315C433.343 124.315 441.759 130.604 437.548 134.448C433.343 138.299 424.025 139.958 431.182 141.624Z" fill="#DF4C73"/>
<path d="M321.199 67.786L317.237 70.7949C316.455 71.3933 315.942 72.2773 315.81 73.2535C315.678 74.2296 315.938 75.2182 316.534 76.0027L326.074 88.5422L331.707 95.9402C332.305 96.7214 333.187 97.2341 334.162 97.3658C335.136 97.4975 336.123 97.2376 336.907 96.643L340.872 93.6303C341.652 93.0303 342.162 92.1468 342.293 91.1721C342.424 90.1975 342.165 89.2106 341.571 88.4262L340.987 87.6535L329.43 72.4692L326.398 68.4887C326.103 68.1011 325.734 67.7753 325.313 67.5302C324.892 67.285 324.427 67.1252 323.944 67.0599C323.461 66.9947 322.97 67.0252 322.499 67.1498C322.028 67.2744 321.586 67.4905 321.199 67.786Z" fill="#3F3D56"/>
<path d="M323.27 67.5585L319.003 70.5353C318.626 70.7814 318.306 71.1045 318.064 71.4832C317.822 71.8619 317.662 72.2877 317.597 72.7325C317.531 73.1773 317.56 73.631 317.683 74.0637C317.805 74.4963 318.018 74.8982 318.307 75.2426L323.892 81.9725L326.868 85.5576L328.854 87.9495L333.296 93.3005C333.924 94.0184 334.794 94.4802 335.74 94.598C336.687 94.7157 337.644 94.4811 338.428 93.9389L341.626 91.7085L342.69 90.9664C343.22 90.6128 343.634 90.1104 343.88 89.5223C344.125 88.9341 344.192 88.2865 344.071 87.6607C343.964 87.1408 343.729 86.6557 343.387 86.2495L330.263 70.4352L328.403 68.1969C327.775 67.4781 326.905 67.0155 325.958 66.8978C325.011 66.78 324.054 67.0152 323.27 67.5585V67.5585Z" fill="#DF4C73"/>
<path d="M325.997 84.1799C327.988 84.4852 329.782 85.5556 330.997 87.1634C332.211 88.7711 332.751 90.7894 332.5 92.7886C332.442 93.1942 332.352 93.5943 332.228 93.9849L353.728 110.293L349.291 124.114L322.254 98.5897C320.674 97.9526 319.35 96.8104 318.487 95.3413C317.625 93.8723 317.273 92.159 317.486 90.4688C317.617 89.5083 317.936 88.5829 318.424 87.7454C318.912 86.908 319.561 86.175 320.332 85.5883C321.104 85.0015 321.984 84.5724 322.921 84.3256C323.859 84.0788 324.836 84.0191 325.796 84.1498C325.863 84.159 325.93 84.169 325.997 84.1799Z" fill="#A0616A"/>
<path d="M413.684 59.9938C415.563 60.3764 417.338 61.1593 418.888 62.2891C420.438 63.419 421.726 64.8693 422.665 66.5415C423.604 68.2137 424.172 70.0686 424.331 71.9799C424.489 73.8913 424.234 75.8143 423.582 77.6182L413.119 106.598L382.883 149.322C382.883 149.322 346.624 134.006 343.878 126.436C341.133 118.865 343.612 116.253 341.133 118.865C338.654 121.478 335.511 121.168 336.263 119.973C337.016 118.777 336.62 118.803 335.512 117.55C334.404 116.298 329.932 110.145 329.932 110.145L337.956 97.5652C337.956 97.5652 350.252 100.404 351.89 103.104C353.529 105.805 349.411 105.716 353.529 105.805C357.646 105.893 361.846 100.292 358.838 105.86C355.831 111.427 356.624 113.368 360.345 112.486C364.066 111.604 373.098 119.793 373.098 119.793L399.039 67.1757C400.344 64.5291 402.489 62.389 405.138 61.0898C407.788 59.7905 410.793 59.4051 413.684 59.9938Z" fill="#DF4C73"/>
<path d="M398.213 42.5493C405.729 35.0328 405.729 22.8462 398.213 15.3297C390.696 7.81317 378.51 7.81317 370.993 15.3297C363.477 22.8462 363.477 35.0328 370.993 42.5493C378.51 50.0658 390.696 50.0658 398.213 42.5493Z" fill="#A0616A"/>
<path d="M407.11 7.97143C405.676 -3.01265 380.34 -2.31196 377.948 8.02226C376.679 7.22856 373.451 7.77794 372.247 8.69023C371.043 9.60253 370.272 10.9437 369.516 12.2456C368.485 14.0538 361.268 20.1715 360.186 18.3879C357.752 14.3739 352.98 23.1452 356.643 29.0178C357.521 30.4258 374.495 28.1654 376.131 27.8367C377.273 27.6097 375.318 28.0316 376.131 27.8367C376.394 26.5626 379.045 19.9802 378.418 18.8355C379.076 18.9661 379.696 19.2404 380.235 19.639C380.774 20.0375 381.217 20.5504 381.535 21.1407C381.663 21.388 386.305 56.3289 386.305 56.3289C387.573 56.4818 388.854 56.5138 390.129 56.4243C390.92 52.1241 391.064 47.7298 390.556 43.387C391.9 45.8692 392.964 48.4935 393.726 51.2113C394.164 52.7314 394.523 54.2728 394.802 55.8295C405.849 53.7638 420.782 46.6488 423.507 34.5676C408.611 29.6083 420.347 18.8206 407.11 7.97143Z" fill="#2F2E41"/>
<path d="M238.636 63.1676C238.883 61.4709 237.106 59.8079 234.667 59.453C232.228 59.0982 230.051 60.1859 229.804 61.8825C229.557 63.5792 231.334 65.2423 233.773 65.5971C236.212 65.952 238.389 64.8642 238.636 63.1676Z" fill="#E6E6E6"/>
<path d="M267.674 60.3341C267.921 58.6374 266.144 56.9744 263.705 56.6195C261.266 56.2647 259.089 57.3524 258.842 59.049C258.595 60.7457 260.372 62.4088 262.811 62.7636C265.25 63.1185 267.427 62.0307 267.674 60.3341Z" fill="#3F3D56"/>
<path d="M230.684 39.6589C230.931 37.9623 229.154 36.2992 226.715 35.9443C224.276 35.5895 222.099 36.6772 221.852 38.3739C221.605 40.0705 223.382 41.7336 225.821 42.0884C228.26 42.4433 230.438 41.3556 230.684 39.6589Z" fill="#FF6584"/>
<path d="M218.067 30.0294C218.078 28.4718 217.21 27.2025 216.126 27.1943C215.042 27.1861 214.155 28.4421 214.143 29.9997C214.131 31.5573 215 32.8266 216.083 32.8348C217.167 32.843 218.055 31.587 218.067 30.0294Z" fill="#E6E6E6"/>
<path d="M213.788 12.0935C213.8 10.5359 212.931 9.26658 211.847 9.25838C210.764 9.25019 209.876 10.5062 209.864 12.0638C209.852 13.6214 210.721 14.8907 211.804 14.8989C212.888 14.9071 213.776 13.6511 213.788 12.0935Z" fill="#3F3D56"/>
<path d="M247.062 43.6595C247.074 42.1019 246.205 40.8326 245.122 40.8244C244.038 40.8162 243.15 42.0722 243.138 43.6298C243.127 45.1874 243.995 46.4567 245.079 46.4649C246.163 46.4731 247.05 45.2171 247.062 43.6595Z" fill="#E6E6E6"/>
<path d="M233.03 50.6658C233.042 49.1082 232.173 47.8388 231.089 47.8307C230.006 47.8225 229.118 49.0785 229.106 50.6361C229.094 52.1937 229.963 53.463 231.047 53.4712C232.13 53.4794 233.018 52.2234 233.03 50.6658Z" fill="#FF6584"/>
<path d="M252.563 63.6152C252.575 62.0576 251.706 60.7882 250.623 60.7801C249.539 60.7719 248.651 62.0279 248.64 63.5855C248.628 65.1431 249.497 66.4124 250.58 66.4206C251.664 66.4288 252.552 65.1728 252.563 63.6152Z" fill="#3F3D56"/>
<path d="M319.599 80.1773C319.865 79.9876 319.695 79.2962 319.221 78.6328C318.747 77.9695 318.148 77.5856 317.882 77.7752C317.617 77.9649 317.786 78.6564 318.26 79.3197C318.735 79.983 319.334 80.367 319.599 80.1773Z" fill="#3F3D56"/>
<path d="M317.828 77.8151C318.093 77.6255 317.924 76.934 317.45 76.2707C316.975 75.6073 316.376 75.2234 316.111 75.413C315.845 75.6027 316.015 76.2942 316.489 76.9575C316.963 77.6208 317.562 78.0048 317.828 77.8151Z" fill="#3F3D56"/>
</g>
<defs>
<clipPath id="clip0_72_229">
<rect width="500" height="293.977" fill="white"/>
</clipPath>
</defs>
</svg>
